<svg xmlns="http://www.w3.org/2000/svg" width="48" height="48" viewBox="0 0 48 48"><path d="M0 0h48v48h-48v-48z" fill="none"/><circle fill="#fff" cx="24" cy="30.328" r="1.584"/><g stroke="#fff" stroke-width="2" fill="none"><path stroke-linejoin="round" d="M24.009 39.503s6.054-3.991 12.587-10.522c5.932-5.932 9.422-10.202 9.422-10.202l-5.318-7.152s-7.887-1.559-16.689-1.559c-8.805 0-16.691 1.375-16.691 1.375l-5.32 7.335s2.824 3.595 9.523 10.292c7.167 7.169 12.486 10.433 12.486 10.433z"/><path d="M12.139 20.788s4.976-4.576 11.864-4.576c6.927 0 11.703 4.947 11.703 4.947M16.665 25.574s3.064-2.818 7.307-2.818c4.266 0 7.208 3.049 7.208 3.049"/></g></svg>